<mxfile host="app.diagrams.net" modified="2022-09-15T09:38:54.846Z" agent="5.0 (X11)" etag="7agMyV09RkEBxws5C3J_" version="20.3.0" type="github">
  <diagram id="k7QuNVmgz5R4sDoiiN90" name="Page-1">
    <mxGraphModel dx="942" dy="1922" grid="1" gridSize="10" guides="1" tooltips="1" connect="1" arrows="1" fold="1" page="1" pageScale="1" pageWidth="850" pageHeight="1100" math="0" shadow="0">
      <root>
        <mxCell id="0" />
        <mxCell id="1" parent="0" />
        <mxCell id="tMD1-JObgEDARdnzfglz-65" style="edgeStyle=orthogonalEdgeStyle;rounded=0;orthogonalLoop=1;jettySize=auto;html=1;strokeColor=#000000;fontSize=8;fontColor=#000000;startArrow=none;startFill=0;endArrow=classic;endFill=1;" edge="1" parent="1" source="tMD1-JObgEDARdnzfglz-1" target="tMD1-JObgEDARdnzfglz-61">
          <mxGeometry relative="1" as="geometry">
            <Array as="points">
              <mxPoint x="100" y="290" />
              <mxPoint x="100" y="475" />
              <mxPoint x="180" y="475" />
            </Array>
          </mxGeometry>
        </mxCell>
        <mxCell id="tMD1-JObgEDARdnzfglz-1" value="" style="rounded=1;whiteSpace=wrap;html=1;" vertex="1" parent="1">
          <mxGeometry x="120" y="200" width="240" height="250" as="geometry" />
        </mxCell>
        <mxCell id="tMD1-JObgEDARdnzfglz-2" value="u96v2-pl-mapper" style="text;html=1;strokeColor=none;fillColor=none;align=center;verticalAlign=middle;whiteSpace=wrap;rounded=0;" vertex="1" parent="1">
          <mxGeometry x="185" y="200" width="110" height="30" as="geometry" />
        </mxCell>
        <mxCell id="tMD1-JObgEDARdnzfglz-4" value="" style="endArrow=none;dashed=1;html=1;dashPattern=1 4;strokeWidth=2;rounded=0;fillColor=#f5f5f5;strokeColor=#666666;" edge="1" parent="1">
          <mxGeometry width="50" height="50" relative="1" as="geometry">
            <mxPoint x="130" y="230" as="sourcePoint" />
            <mxPoint x="360" y="230" as="targetPoint" />
          </mxGeometry>
        </mxCell>
        <mxCell id="tMD1-JObgEDARdnzfglz-5" value="&lt;font style=&quot;font-size: 9px;&quot;&gt;CPU&lt;/font&gt;" style="text;html=1;strokeColor=none;fillColor=none;align=center;verticalAlign=middle;whiteSpace=wrap;rounded=0;fontColor=#000000;" vertex="1" parent="1">
          <mxGeometry x="185" y="225" width="110" height="30" as="geometry" />
        </mxCell>
        <mxCell id="tMD1-JObgEDARdnzfglz-6" value="&lt;font&gt;pl_mapper&lt;/font&gt;" style="ellipse;whiteSpace=wrap;html=1;aspect=fixed;fontColor=#8F8F8F;strokeColor=#8F8F8F;" vertex="1" parent="1">
          <mxGeometry x="150" y="250" width="60" height="60" as="geometry" />
        </mxCell>
        <mxCell id="tMD1-JObgEDARdnzfglz-7" value="" style="curved=1;endArrow=classic;html=1;rounded=0;fontColor=#8F8F8F;strokeColor=#8F8F8F;startArrow=classic;startFill=1;" edge="1" parent="1" source="tMD1-JObgEDARdnzfglz-6" target="tMD1-JObgEDARdnzfglz-11">
          <mxGeometry width="50" height="50" relative="1" as="geometry">
            <mxPoint x="190" y="170" as="sourcePoint" />
            <mxPoint x="278" y="270" as="targetPoint" />
            <Array as="points">
              <mxPoint x="250" y="250" />
            </Array>
          </mxGeometry>
        </mxCell>
        <mxCell id="tMD1-JObgEDARdnzfglz-10" value="" style="ellipse;whiteSpace=wrap;html=1;aspect=fixed;fontColor=#8F8F8F;strokeColor=#8F8F8F;" vertex="1" parent="1">
          <mxGeometry x="281" y="266" width="40" height="40" as="geometry" />
        </mxCell>
        <mxCell id="tMD1-JObgEDARdnzfglz-11" value="" style="ellipse;whiteSpace=wrap;html=1;aspect=fixed;fontColor=#8F8F8F;strokeColor=#8F8F8F;" vertex="1" parent="1">
          <mxGeometry x="270" y="280" width="40" height="40" as="geometry" />
        </mxCell>
        <mxCell id="tMD1-JObgEDARdnzfglz-12" value="..." style="ellipse;whiteSpace=wrap;html=1;aspect=fixed;fontColor=#8F8F8F;strokeColor=#8F8F8F;" vertex="1" parent="1">
          <mxGeometry x="260" y="294" width="40" height="40" as="geometry" />
        </mxCell>
        <mxCell id="tMD1-JObgEDARdnzfglz-13" value="" style="endArrow=none;dashed=1;html=1;dashPattern=1 4;strokeWidth=2;rounded=0;fillColor=#f5f5f5;strokeColor=#666666;" edge="1" parent="1">
          <mxGeometry width="50" height="50" relative="1" as="geometry">
            <mxPoint x="130" y="350" as="sourcePoint" />
            <mxPoint x="360" y="350" as="targetPoint" />
          </mxGeometry>
        </mxCell>
        <mxCell id="tMD1-JObgEDARdnzfglz-14" value="&lt;font style=&quot;font-size: 9px;&quot;&gt;FPGA&lt;/font&gt;" style="text;html=1;strokeColor=none;fillColor=none;align=center;verticalAlign=middle;whiteSpace=wrap;rounded=0;fontSize=9;fontColor=#000000;" vertex="1" parent="1">
          <mxGeometry x="185" y="346" width="110" height="30" as="geometry" />
        </mxCell>
        <mxCell id="tMD1-JObgEDARdnzfglz-16" value="" style="rounded=1;whiteSpace=wrap;html=1;fontColor=#8F8F8F;strokeColor=#8F8F8F;" vertex="1" parent="1">
          <mxGeometry x="217" y="376" width="90" height="40" as="geometry" />
        </mxCell>
        <mxCell id="tMD1-JObgEDARdnzfglz-17" value="" style="rounded=1;whiteSpace=wrap;html=1;fontColor=#8F8F8F;strokeColor=#8F8F8F;" vertex="1" parent="1">
          <mxGeometry x="192" y="386" width="90" height="40" as="geometry" />
        </mxCell>
        <mxCell id="tMD1-JObgEDARdnzfglz-18" value="&lt;div&gt;Perception &lt;br&gt;&lt;/div&gt;&lt;div&gt;accelerators&lt;/div&gt;" style="rounded=1;whiteSpace=wrap;html=1;fontColor=#8F8F8F;strokeColor=#8F8F8F;" vertex="1" parent="1">
          <mxGeometry x="173" y="396" width="90" height="40" as="geometry" />
        </mxCell>
        <mxCell id="tMD1-JObgEDARdnzfglz-19" value="" style="curved=1;endArrow=classic;html=1;rounded=0;strokeColor=#8F8F8F;fontColor=#8F8F8F;entryX=0;entryY=0;entryDx=0;entryDy=0;dashed=1;startArrow=classic;startFill=1;" edge="1" parent="1" source="tMD1-JObgEDARdnzfglz-6" target="tMD1-JObgEDARdnzfglz-18">
          <mxGeometry width="50" height="50" relative="1" as="geometry">
            <mxPoint x="140" y="370" as="sourcePoint" />
            <mxPoint x="190" y="320" as="targetPoint" />
            <Array as="points">
              <mxPoint x="160" y="350" />
            </Array>
          </mxGeometry>
        </mxCell>
        <mxCell id="tMD1-JObgEDARdnzfglz-21" value="&lt;font style=&quot;font-size: 8px;&quot;&gt;*Perception system presented in previous article&lt;/font&gt;" style="text;html=1;strokeColor=none;fillColor=none;align=center;verticalAlign=middle;whiteSpace=wrap;rounded=0;fontColor=#8F8F8F;fontSize=8;" vertex="1" parent="1">
          <mxGeometry x="149.75" y="440" width="180.5" height="10" as="geometry" />
        </mxCell>
        <mxCell id="tMD1-JObgEDARdnzfglz-22" value="/pl_mapper/powerline" style="rounded=0;whiteSpace=wrap;html=1;strokeColor=#000000;fontSize=9;fontColor=#000000;" vertex="1" parent="1">
          <mxGeometry x="330.25" y="250" width="89.75" height="20" as="geometry" />
        </mxCell>
        <mxCell id="tMD1-JObgEDARdnzfglz-71" style="edgeStyle=orthogonalEdgeStyle;rounded=0;orthogonalLoop=1;jettySize=auto;html=1;strokeColor=#000000;fontSize=8;fontColor=#000000;startArrow=none;startFill=0;endArrow=classic;endFill=1;" edge="1" parent="1" source="tMD1-JObgEDARdnzfglz-23" target="tMD1-JObgEDARdnzfglz-70">
          <mxGeometry relative="1" as="geometry" />
        </mxCell>
        <mxCell id="tMD1-JObgEDARdnzfglz-23" value="" style="rounded=1;whiteSpace=wrap;html=1;" vertex="1" parent="1">
          <mxGeometry x="590" y="200" width="240" height="250" as="geometry" />
        </mxCell>
        <mxCell id="tMD1-JObgEDARdnzfglz-24" value="u96v2-controller" style="text;html=1;strokeColor=none;fillColor=none;align=center;verticalAlign=middle;whiteSpace=wrap;rounded=0;" vertex="1" parent="1">
          <mxGeometry x="655" y="200" width="110" height="30" as="geometry" />
        </mxCell>
        <mxCell id="tMD1-JObgEDARdnzfglz-25" value="" style="endArrow=none;dashed=1;html=1;dashPattern=1 4;strokeWidth=2;rounded=0;fillColor=#f5f5f5;strokeColor=#666666;" edge="1" parent="1">
          <mxGeometry width="50" height="50" relative="1" as="geometry">
            <mxPoint x="600" y="230" as="sourcePoint" />
            <mxPoint x="830" y="230" as="targetPoint" />
          </mxGeometry>
        </mxCell>
        <mxCell id="tMD1-JObgEDARdnzfglz-26" value="&lt;font style=&quot;font-size: 9px;&quot;&gt;CPU&lt;/font&gt;" style="text;html=1;strokeColor=none;fillColor=none;align=center;verticalAlign=middle;whiteSpace=wrap;rounded=0;fontSize=9;fontColor=#000000;" vertex="1" parent="1">
          <mxGeometry x="655" y="225" width="110" height="30" as="geometry" />
        </mxCell>
        <mxCell id="tMD1-JObgEDARdnzfglz-32" value="" style="endArrow=none;dashed=1;html=1;dashPattern=1 4;strokeWidth=2;rounded=0;fillColor=#f5f5f5;strokeColor=#666666;" edge="1" parent="1">
          <mxGeometry width="50" height="50" relative="1" as="geometry">
            <mxPoint x="600" y="350" as="sourcePoint" />
            <mxPoint x="830" y="350" as="targetPoint" />
          </mxGeometry>
        </mxCell>
        <mxCell id="tMD1-JObgEDARdnzfglz-33" value="&lt;font style=&quot;font-size: 9px;&quot;&gt;FPGA&lt;/font&gt;" style="text;html=1;strokeColor=none;fillColor=none;align=center;verticalAlign=middle;whiteSpace=wrap;rounded=0;fontSize=9;fontColor=#000000;" vertex="1" parent="1">
          <mxGeometry x="655" y="345" width="110" height="30" as="geometry" />
        </mxCell>
        <mxCell id="tMD1-JObgEDARdnzfglz-45" style="edgeStyle=orthogonalEdgeStyle;rounded=0;orthogonalLoop=1;jettySize=auto;html=1;exitX=0;exitY=0.5;exitDx=0;exitDy=0;exitPerimeter=0;entryX=0;entryY=0.5;entryDx=0;entryDy=0;entryPerimeter=0;strokeColor=#000000;fontSize=8;fontColor=#000000;startArrow=none;startFill=0;endArrow=none;endFill=0;" edge="1" parent="1" source="tMD1-JObgEDARdnzfglz-41" target="tMD1-JObgEDARdnzfglz-43">
          <mxGeometry relative="1" as="geometry" />
        </mxCell>
        <mxCell id="tMD1-JObgEDARdnzfglz-41" value="" style="strokeWidth=1;html=1;shape=mxgraph.flowchart.annotation_2;align=left;labelPosition=right;pointerEvents=1;strokeColor=#000000;fontSize=8;fontColor=#000000;rotation=-180;" vertex="1" parent="1">
          <mxGeometry x="420" y="240" width="50" height="100" as="geometry" />
        </mxCell>
        <mxCell id="tMD1-JObgEDARdnzfglz-42" value="/pl_mapper/powerline" style="rounded=0;whiteSpace=wrap;html=1;strokeColor=#000000;fontSize=9;fontColor=#000000;" vertex="1" parent="1">
          <mxGeometry x="540" y="250" width="89.75" height="20" as="geometry" />
        </mxCell>
        <mxCell id="tMD1-JObgEDARdnzfglz-43" value="" style="strokeWidth=1;html=1;shape=mxgraph.flowchart.annotation_2;align=left;labelPosition=right;pointerEvents=1;strokeColor=#000000;fontSize=8;fontColor=#000000;rotation=0;" vertex="1" parent="1">
          <mxGeometry x="490" y="240" width="50" height="100" as="geometry" />
        </mxCell>
        <mxCell id="tMD1-JObgEDARdnzfglz-46" value="ethernet" style="text;html=1;align=center;verticalAlign=middle;resizable=0;points=[];autosize=1;strokeColor=none;fillColor=none;fontSize=12;fontColor=#000000;" vertex="1" parent="1">
          <mxGeometry x="445" y="269" width="70" height="30" as="geometry" />
        </mxCell>
        <mxCell id="tMD1-JObgEDARdnzfglz-47" value="/tf" style="rounded=0;whiteSpace=wrap;html=1;strokeColor=#000000;fontSize=9;fontColor=#000000;" vertex="1" parent="1">
          <mxGeometry x="330.25" y="280" width="89.75" height="20" as="geometry" />
        </mxCell>
        <mxCell id="tMD1-JObgEDARdnzfglz-48" value="..." style="rounded=0;whiteSpace=wrap;html=1;strokeColor=#000000;fontSize=8;fontColor=#000000;" vertex="1" parent="1">
          <mxGeometry x="330.25" y="310" width="89.75" height="20" as="geometry" />
        </mxCell>
        <mxCell id="tMD1-JObgEDARdnzfglz-49" value="/tf" style="rounded=0;whiteSpace=wrap;html=1;strokeColor=#000000;fontSize=9;fontColor=#000000;" vertex="1" parent="1">
          <mxGeometry x="540" y="279" width="89.75" height="20" as="geometry" />
        </mxCell>
        <mxCell id="tMD1-JObgEDARdnzfglz-50" value="..." style="rounded=0;whiteSpace=wrap;html=1;strokeColor=#000000;fontSize=8;fontColor=#000000;" vertex="1" parent="1">
          <mxGeometry x="540" y="309" width="89.75" height="20" as="geometry" />
        </mxCell>
        <mxCell id="tMD1-JObgEDARdnzfglz-51" value="&lt;div style=&quot;font-size: 12px;&quot;&gt;&lt;font style=&quot;font-size: 12px;&quot;&gt;trajectory_&lt;/font&gt;&lt;/div&gt;&lt;div style=&quot;font-size: 12px;&quot;&gt;&lt;font style=&quot;font-size: 12px;&quot;&gt;controller&lt;/font&gt;&lt;/div&gt;" style="ellipse;whiteSpace=wrap;html=1;aspect=fixed;strokeColor=#000000;strokeWidth=1;fontSize=8;fontColor=#000000;" vertex="1" parent="1">
          <mxGeometry x="635" y="240" width="70" height="70" as="geometry" />
        </mxCell>
        <mxCell id="tMD1-JObgEDARdnzfglz-60" style="edgeStyle=orthogonalEdgeStyle;rounded=0;orthogonalLoop=1;jettySize=auto;html=1;strokeColor=#000000;fontSize=8;fontColor=#000000;startArrow=none;startFill=0;endArrow=classic;endFill=1;" edge="1" parent="1" source="tMD1-JObgEDARdnzfglz-52" target="tMD1-JObgEDARdnzfglz-58">
          <mxGeometry relative="1" as="geometry">
            <Array as="points">
              <mxPoint x="740" y="360" />
              <mxPoint x="740" y="360" />
            </Array>
          </mxGeometry>
        </mxCell>
        <mxCell id="tMD1-JObgEDARdnzfglz-52" value="&lt;div style=&quot;font-size: 12px;&quot;&gt;&lt;font style=&quot;font-size: 12px;&quot;&gt;cable_&lt;/font&gt;&lt;/div&gt;&lt;div style=&quot;font-size: 12px;&quot;&gt;&lt;font style=&quot;font-size: 12px;&quot;&gt;drum_&lt;/font&gt;&lt;/div&gt;&lt;div style=&quot;font-size: 12px;&quot;&gt;&lt;font style=&quot;font-size: 12px;&quot;&gt;controller&lt;br&gt;&lt;/font&gt;&lt;/div&gt;" style="ellipse;whiteSpace=wrap;html=1;aspect=fixed;strokeColor=#000000;strokeWidth=1;fontSize=8;fontColor=#000000;" vertex="1" parent="1">
          <mxGeometry x="700" y="280" width="60" height="60" as="geometry" />
        </mxCell>
        <mxCell id="tMD1-JObgEDARdnzfglz-53" value="&lt;div style=&quot;font-size: 12px;&quot;&gt;&lt;font style=&quot;font-size: 12px;&quot;&gt;double_&lt;/font&gt;&lt;/div&gt;&lt;div style=&quot;font-size: 12px;&quot;&gt;&lt;font style=&quot;font-size: 12px;&quot;&gt;cable_&lt;/font&gt;&lt;/div&gt;&lt;div style=&quot;font-size: 12px;&quot;&gt;&lt;font style=&quot;font-size: 12px;&quot;&gt;lander&lt;br&gt;&lt;/font&gt;&lt;/div&gt;" style="ellipse;whiteSpace=wrap;html=1;aspect=fixed;strokeColor=#000000;strokeWidth=1;fontSize=8;fontColor=#000000;" vertex="1" parent="1">
          <mxGeometry x="765" y="232.5" width="57.5" height="57.5" as="geometry" />
        </mxCell>
        <mxCell id="tMD1-JObgEDARdnzfglz-56" value="" style="curved=1;endArrow=classic;html=1;rounded=0;strokeColor=#000000;fontSize=8;fontColor=#000000;startArrow=classic;startFill=1;" edge="1" parent="1" source="tMD1-JObgEDARdnzfglz-53" target="tMD1-JObgEDARdnzfglz-51">
          <mxGeometry width="50" height="50" relative="1" as="geometry">
            <mxPoint x="580" y="170" as="sourcePoint" />
            <mxPoint x="630" y="120" as="targetPoint" />
            <Array as="points">
              <mxPoint x="730" y="250" />
            </Array>
          </mxGeometry>
        </mxCell>
        <mxCell id="tMD1-JObgEDARdnzfglz-57" value="" style="curved=1;endArrow=classic;html=1;rounded=0;strokeColor=#000000;fontSize=8;fontColor=#000000;startArrow=classic;startFill=1;" edge="1" parent="1" source="tMD1-JObgEDARdnzfglz-53" target="tMD1-JObgEDARdnzfglz-52">
          <mxGeometry width="50" height="50" relative="1" as="geometry">
            <mxPoint x="580" y="170" as="sourcePoint" />
            <mxPoint x="630" y="120" as="targetPoint" />
            <Array as="points">
              <mxPoint x="786" y="308" />
            </Array>
          </mxGeometry>
        </mxCell>
        <mxCell id="tMD1-JObgEDARdnzfglz-58" value="Cable drum logic circuit" style="rounded=1;whiteSpace=wrap;html=1;fontColor=#000000;strokeColor=#000000;" vertex="1" parent="1">
          <mxGeometry x="665" y="386" width="90" height="40" as="geometry" />
        </mxCell>
        <mxCell id="tMD1-JObgEDARdnzfglz-61" value="mmWave radar sensor" style="rounded=1;whiteSpace=wrap;html=1;strokeColor=#000000;strokeWidth=1;fontSize=12;fontColor=#000000;" vertex="1" parent="1">
          <mxGeometry x="120" y="500" width="120" height="30" as="geometry" />
        </mxCell>
        <mxCell id="tMD1-JObgEDARdnzfglz-62" value="RGB global shutter camera" style="rounded=1;whiteSpace=wrap;html=1;strokeColor=#000000;strokeWidth=1;fontSize=12;fontColor=#000000;" vertex="1" parent="1">
          <mxGeometry x="241" y="500" width="120" height="30" as="geometry" />
        </mxCell>
        <mxCell id="tMD1-JObgEDARdnzfglz-63" style="edgeStyle=orthogonalEdgeStyle;rounded=0;orthogonalLoop=1;jettySize=auto;html=1;exitX=0.5;exitY=1;exitDx=0;exitDy=0;dashed=1;dashPattern=1 4;strokeColor=#000000;fontSize=8;fontColor=#000000;startArrow=none;startFill=0;endArrow=classic;endFill=1;" edge="1" parent="1" source="tMD1-JObgEDARdnzfglz-61" target="tMD1-JObgEDARdnzfglz-61">
          <mxGeometry relative="1" as="geometry" />
        </mxCell>
        <mxCell id="tMD1-JObgEDARdnzfglz-66" style="edgeStyle=orthogonalEdgeStyle;rounded=0;orthogonalLoop=1;jettySize=auto;html=1;strokeColor=#000000;fontSize=8;fontColor=#000000;startArrow=none;startFill=0;endArrow=classic;endFill=1;" edge="1" parent="1" target="tMD1-JObgEDARdnzfglz-62">
          <mxGeometry relative="1" as="geometry">
            <mxPoint x="180" y="475" as="sourcePoint" />
            <Array as="points">
              <mxPoint x="301" y="475" />
            </Array>
          </mxGeometry>
        </mxCell>
        <mxCell id="tMD1-JObgEDARdnzfglz-67" value="USB" style="text;html=1;align=center;verticalAlign=middle;resizable=0;points=[];autosize=1;strokeColor=none;fillColor=none;fontSize=12;fontColor=#000000;" vertex="1" parent="1">
          <mxGeometry x="212" y="454" width="50" height="30" as="geometry" />
        </mxCell>
        <mxCell id="tMD1-JObgEDARdnzfglz-70" value="Cable drum electronics" style="rounded=1;whiteSpace=wrap;html=1;strokeColor=#000000;strokeWidth=1;fontSize=12;fontColor=#000000;" vertex="1" parent="1">
          <mxGeometry x="650" y="500" width="120" height="30" as="geometry" />
        </mxCell>
        <mxCell id="tMD1-JObgEDARdnzfglz-72" value="pinout" style="text;html=1;align=center;verticalAlign=middle;resizable=0;points=[];autosize=1;strokeColor=none;fillColor=none;fontSize=12;fontColor=#000000;rotation=-90;" vertex="1" parent="1">
          <mxGeometry x="688" y="456" width="60" height="30" as="geometry" />
        </mxCell>
      </root>
    </mxGraphModel>
  </diagram>
</mxfile>
